# xmcd
#
# Track frame offsets: 
#        150
#        16607
#        27647
#        50940
#        66250
#        84905
#        98212
#        117290
#        136932
#        155110
#        172382
#        192392
#
# Disc length: 2733 seconds
#
# Revision: 2
# Processed by: cddbd v1.5.2PL0 Copyright (c) Steve Scherf et al.
# Submitted via: ExactAudioCopyFreeDBPlugin 1.0
#
DISCID=ab0aab0c
DTITLE=Shades of Blue - On A Mission From Muddy Waters
DYEAR=1992
DGENRE=Blues
TTITLE0=Regurgitation Blues
TTITLE1=Baby I Wants To Be Loved
TTITLE2=I'm Gonna Cut My Hair (And Get A Job)
TTITLE3=Two-Timer
TTITLE4=Blues Gon Take My Life
TTITLE5=On The Beat
TTITLE6=Yo Taxi
TTITLE7=Feels Like The First Time
TTITLE8=I Done Got Wise
TTITLE9=That Ain't Beauty Mama
TTITLE10=Fishing Blues
TTITLE11=Rollin' 'n' Tumblin'
EXTD=
EXTT0=
EXTT1=
EXTT2=
EXTT3=
EXTT4=
EXTT5=
EXTT6=
EXTT7=
EXTT8=
EXTT9=
EXTT10=
EXTT11=
PLAYORDER=
